<svg xmlns="http://www.w3.org/2000/svg" viewBox="0 0 841.9 595.3">
    <symbol id='mainLogo' width="106.333" height="103.067" viewBox="0 0 106.333 103.067">
        <defs>
            <style>.a{fill:#ffbc21;}.b,.d{fill:#003e84;}.b,.c{fill-rule:evenodd;}.c{fill:#fff;}
            </style>
        </defs>
        <g transform="translate(0.001 -2)">
            <rect class="a" fill='#ffbc21' width="94.433" height="79.875" transform="translate(5.949 13.596)"/>
            <path class="b" fill='#003e84' d="M66.284,2a53.18,53.18,0,0,1,0,103.067v-37.1H40.047v37.1A53.18,53.18,0,0,1,40.047,2V38.814H66.284Z" transform="translate(0)"/>
            <path class="c" fill='#fff' d="M136.272,223.087l-.627,4.52h1.3Zm-6.015,11.02,0-2.36a2.134,2.134,0,0,0,.835-1.23L133.1,219.9l6.09.006,2.42,10.671a1.772,1.772,0,0,0,.76,1.15l-.018,2.389h-5.416l.01-2.453a1.242,1.242,0,0,0,.439-.55v-.738l-2.2,0v.744a1.251,1.251,0,0,0,.516.557l0,2.433Zm17.553,0v-2.431a1.284,1.284,0,0,0,.836-.924v-7.9a1.046,1.046,0,0,0-.826.832l-.018,2.658-3.016-.006,0-6.433H157l.014,6.415h-3.178l-.012-2.773a.848.848,0,0,0-.867-.647l0,7.765a1.785,1.785,0,0,0,.831,1.087v2.361Zm-26.715-5.849.007,2.927c1.151-.027,1.843-.257,2.021-1.249a4.324,4.324,0,0,0-.037-.483,1.608,1.608,0,0,0-1.349-1.161C121.579,228.27,121.286,228.276,121.095,228.259Zm0-5.491.006,2.542c1.023.1,1.7-.262,1.861-1.192C122.971,223,122.291,222.663,121.1,222.768Zm-5.238,11.352v-2.59a1.237,1.237,0,0,0,.5-.9l-.007-7.4a1.223,1.223,0,0,0-.507-.825l.011-2.5h7.771a3.5,3.5,0,0,1,1.491,6.691c3.668,1.5,2.97,7.4-1.146,7.516Zm-9.149-11.057-.627,4.52h1.3Zm-6.1,11.043,0-2.413a1.854,1.854,0,0,0,.7-1.177l2.075-10.616,6.292.006,2.451,10.671a1.771,1.771,0,0,0,.781,1.149l.008,2.389h-5.567l.009-2.453a1.068,1.068,0,0,0,.4-.524v-.764l-2.217,0v.744a1.267,1.267,0,0,0,.534.557l.024,2.433Zm-15.039-14.2,0,2.5c.3.114.414.345.455.763l.02,7.792a1.025,1.025,0,0,1-.478.683l0,2.469,5.332-.006.01-2.413a1.665,1.665,0,0,1-.463-.73l.013-2.412,2.048.015.019,2.388a1.4,1.4,0,0,1-.43.779l0,2.381,5.466-.009-.011-2.4a1.737,1.737,0,0,1-.519-.879l.013-7.741a.83.83,0,0,1,.529-.682l-.012-2.5-5.47,0,.011,2.488a1.446,1.446,0,0,1,.411.742l0,2.257-2.077.022.006-2.305a1.216,1.216,0,0,1,.465-.69l-.015-2.508Z" transform="translate(-68.126 -173.478)"/>
            <rect class="d" fill='#003e84' width="0.409" height="80.286" transform="translate(5.744 13.392)"/>
            <rect class="d" fill='#003e84' width="0.409" height="80.286" transform="translate(100.169 13.392)"/>
            <rect class="d" fill='#003e84' width="94.835" height="0.409" transform="translate(5.744 93.268)"/>
            <rect class="d" fill='#003e84' width="94.835" height="0.409" transform="translate(5.748 13.392)"/>
            <path class="c" fill='#fff' d="M347.18,58.155H324.843v-.409h21.868Z" transform="translate(-258.618 -44.381)"/>
            <path class="c" fill='#fff' d="M87.114,58.155h22.337v-.409H87.583Z" transform="translate(-69.354 -44.381)"/>
            <path class="c" fill='#fff' d="M87.116,449.679h22.337v.409H87.586Z" transform="translate(-69.356 -356.41)"/>
            <path class="c" fill='#fff' d="M347.183,449.679H324.845v.409h21.867Z" transform="translate(-258.62 -356.41)"/>
        </g>
    </symbol>

    <symbol id='flag' width="139" height="153" viewBox="0 0 139 153">
        <defs>
            <style>.a{fill:#ffbc21;}
            </style>
        </defs>
        <path class="a" fill='#ffbc21' d="M0,0H139V153L69.5,125,0,153Z"/>
    </symbol>

    <symbol id='icon1' width="90" height="90" viewBox="0 0 90 90">
        <g transform="translate(-630.084 -1356.956)">
            <rect class="a" width="90" height="90" transform="translate(630.084 1356.956)"/>
            <rect class="b" fill='#003e84' width="50" height="50" transform="translate(646.084 1376.956)"/>
            <path class="c" fill='#ffbc21' d="M0-2.484,29-10V58.4L0,50.884Z" transform="translate(646.084 1377.956)"/>
        </g>
    </symbol>

    <symbol id='icon2' width="90" height="90" viewBox="0 0 90 90">
        <g transform="translate(-1050.084 -1373.956)">
            <rect class="a" width="90" height="90" transform="translate(1050.084 1373.956)"/>
            <path class="b" fill='#ffbc21' d="M0-1.818,20-20l20.909,9.091V24.545L0,33.636Z" transform="translate(1065.084 1407.956)"/>
            <path class="c" fill='#003e84' d="M0-1.818,20-20l20.909,9.091V24.545L0,33.636Z" transform="translate(1084.175 1417.047)"/>
        </g>
    </symbol>

    <symbol id='icon3' width="90" height="90" viewBox="0 0 90 90">
        <g transform="translate(5.931 5.754)">
            <rect class="a" width="90" height="90" transform="translate(-5.931 -5.754)"/>
            <g class="b">
                <path class="c" fill='#003e84' d="M15.208,7.692,53.343,0,38.136,49.31,0,57Z" transform="translate(41.689 15.064) rotate(47)"/>
                <path class="d" fill='#ffbc21' d="M15.208,7.692,53.343,0,38.136,49.31,0,57Z" transform="translate(41.689) rotate(47)"/>
                <path class="c" fill='#003e84' d="M30.912,24.387C30.912,17.649,18.713,4,18.713,4s-12.2,13.648-12.2,20.386a12.2,12.2,0,0,0,24.4,0Z" transform="translate(21.706 6.56)"/>
            </g>
        </g>
    </symbol>

    <symbol id='icon4' width="90" height="90" viewBox="0 0 90 90">
        <g transform="translate(-633.084 -1350.141)">
            <rect class="a" width="90" height="90" transform="translate(633.084 1350.141)"/>
            <path class="b" fill='#ffbc21' d="M0-6.264,30-24V12.949L0,30.685Z" transform="translate(648.084 1379.141)"/>
            <path class="c" fill='#003e84' d="M8.327,8.327,42.4,0,34.069,34.069,0,42.4Z" transform="translate(678.063 1379.89) rotate(45)"/>
            <path class="b" fill='#ffbc21' d="M0-6.264,30-24V12.949L0,30.685Z" transform="translate(678.084 1398.141)"/>
        </g>
    </symbol>

    <symbol id='icon5' width="90" height="90" viewBox="0 0 90 90">
        <g transform="translate(-1070.548 -1681.956)">
            <rect class="a" width="90" height="90" transform="translate(1070.548 1681.956)"/>
            <g class="b">
                <path class="c" fill='#003e84' d="M8.415.862,58.348,0,49.933,30.477,0,31.339Z" transform="translate(1096.209 1706.678) rotate(45)"/>
                <path class="d" fill='#ffbc21' d="M8.415.862,58.348,0,49.933,30.477,0,31.339Z" transform="translate(1115.957 1683.638) rotate(45)"/>
            </g>
        </g>
    </symbol>

    <symbol id='icon6' xmlns="http://www.w3.org/2000/svg" xmlns:xlink="http://www.w3.org/1999/xlink"  width="90" height="90" viewBox="0 0 90 90">
        <defs id="g">
            <clipPath id="b">
                <path class="b" d="M39,0,78,60H0Z" transform="translate(1493.084 1751.156) rotate(-90)"/>
            </clipPath>
        </defs>
        <g transform="translate(-1497.084 -1659.956)" clip-path="url(#a)">
            <rect class="a" width="90" height="90" transform="translate(1497.084 1659.956)"/>
            <g class="c">
                <g class="d" transform="translate(15 -7.2)">
                    <rect class="e" fill='#003e84' width="67" height="82" transform="translate(1489.084 1670.156)"/>
                    <rect class="f" fill='#ffbc21' width="36" height="64" transform="translate(1492.084 1680.156)"/>
                </g>
            </g>
        </g>
    </symbol>

    <symbol id='logo7' width="90" height="90" viewBox="0 0 90 90">
        <defs>
            <style>.a{fill:#fff;}.b{fill:#ffbc21;}.c{fill:#003e84;}
            </style>
        </defs>
        <g transform="translate(-630.084 -1356.956)">
            <rect class="a" fill='#fff' width="90" height="90" transform="translate(630.084 1356.956)"/>
            <path class="b" fill='#ffbc21' d="M0-10H12.095L44,30.8V48H0Z" transform="translate(671.084 1382.956)"/>
            <path class="c" fill='#003e84' d="M0-10H12.095L44,30.8V48H0Z" transform="translate(638.084 1382.956)"/>
            <rect class="b" fill='#ffbc21' width="9" height="32" transform="translate(698.084 1378.956)"/>
        </g>
    </symbol>

    <symbol id='footerLogo' width="257" height="51.154" viewBox="0 0 257 51.154">
        <defs>
            <style>.a{fill:#fff;fill-rule:evenodd;}
            </style>
        </defs>
        <path class="a" fill='#fff' d="M267.958,231.362l-2.257,16.26h4.689ZM246.319,271l-.012-8.49a7.677,7.677,0,0,0,3-4.424l7.225-38.189,21.909.022,8.707,38.387c.8,2.983,1.715,3.13,2.735,4.136l-.064,8.594H270.339l.037-8.824a4.466,4.466,0,0,0,1.578-1.979l0-2.654-7.909-.007,0,2.677a4.5,4.5,0,0,0,1.858,2l-.007,8.751Zm63.145.005.005-8.746a4.621,4.621,0,0,0,3.007-3.324V230.509a3.763,3.763,0,0,0-2.971,2.993l-.065,9.563-10.85-.02.015-23.143h43.916l.049,23.077H331.138L331.094,233c-.681-1.751-1.725-2.359-3.119-2.328l-.014,27.932a6.422,6.422,0,0,0,2.991,3.91l0,8.494Zm-96.1-21.042.024,10.529c4.141-.1,6.63-.925,7.269-4.494a15.568,15.568,0,0,0-.133-1.737,5.783,5.783,0,0,0-4.853-4.177C215.1,250.008,214.048,250.027,213.361,249.968Zm.01-19.752.021,9.145c3.679.342,6.12-.941,6.7-4.287C220.112,231.037,217.665,229.836,213.371,230.216Zm-18.842,40.839v-9.318a4.449,4.449,0,0,0,1.814-3.251l-.026-26.631a4.4,4.4,0,0,0-1.825-2.967l.038-8.986h27.955c14.366.548,17.211,18.872,5.363,24.071,13.2,5.379,10.684,26.617-4.124,27.038Zm-32.913-39.774-2.257,16.26h4.689ZM139.67,271l-.013-8.68a6.668,6.668,0,0,0,2.524-4.234l7.464-38.189,22.634.022,8.817,38.388c.831,2.983,1.756,3.129,2.81,4.135l.03,8.594H163.909l.034-8.824a3.843,3.843,0,0,0,1.437-1.883l0-2.749-7.977-.007,0,2.677a4.559,4.559,0,0,0,1.919,2l.086,8.752Zm-54.1-51.068.018,8.979c1.082.411,1.491,1.24,1.636,2.745l.071,28.031a3.688,3.688,0,0,1-1.721,2.457l.012,8.881,19.179-.021.036-8.679a5.988,5.988,0,0,1-1.667-2.625l.045-8.678,7.368.056.07,8.591a5.028,5.028,0,0,1-1.546,2.8l-.01,8.565,19.664-.032-.039-8.631a6.247,6.247,0,0,1-1.867-3.162l.046-27.847a2.985,2.985,0,0,1,1.9-2.453l-.043-9.006-19.676-.01.039,8.949a5.2,5.2,0,0,1,1.479,2.668l.017,8.119-7.471.078.022-8.293a4.372,4.372,0,0,1,1.674-2.482l-.054-9.022Z" transform="translate(-85.571 -219.901)"/>
    </symbol>

    <symbol id='footerLogo2' width="582" height="395" viewBox="0 0 582 395">
        <defs>
            <style>.a,.e{fill:#fff;}.a{stroke:#707070;}.b{clip-path:url(#a);}.c{fill:none;fill-rule:evenodd;opacity:0.04;}.d,.e{stroke:none;}
            </style>
            <clipPath id="a">
                <rect class="a" stroke='#707070' width="582" height="395" transform="translate(152 5274)"/>
            </clipPath>
        </defs>
        <g class="b" transform="translate(-152 -5274)">
            <g class="c" fill='none' fill-rule='evenodd' opacity='0.04' transform="translate(175.651 5116.003)">
                <path class="a" stroke='#707070' width="582" height="395" transform="translate(152 5274)"/>
                <path class="d" d="M331.85,2c115.228,29.255,200.5,133.684,200.5,258s-85.271,228.743-200.5,258V332.249H200.5V518C85.27,488.742,0,384.312,0,260S85.27,31.254,200.5,2V186.308H331.85Z"/>
                <path class="e" stroke='none' fill='#fff' d="M 200.4976501464844 2 C 85.27008056640625 31.254150390625 -0.0009765625 135.6841430664063 -0.0009765625 259.9985046386719 C -0.0009765625 384.3119201660156 85.27008056640625 488.7419128417969 200.4976501464844 517.9971313476563 L 200.4976501464844 332.2490844726563 L 331.8504943847656 332.2490844726563 L 331.8504943847656 517.9971313476563 C 447.0780029296875 488.7419128417969 532.34912109375 384.3119201660156 532.34912109375 259.9985046386719 C 532.34912109375 135.6841430664063 447.0780029296875 31.25521850585938 331.8504943847656 2 L 331.8504943847656 186.307861328125 L 200.4976501464844 186.307861328125 L 200.4976501464844 2 M 327.8504943847656 -3.14251708984375 L 332.8348388671875 -1.87701416015625 C 347.2798461914063 1.7904052734375 361.5214233398438 6.7039794921875 375.1641235351563 12.727294921875 C 388.6026611328125 18.66033935546875 401.6626586914063 25.75906372070313 413.9814453125 33.8262939453125 C 426.192626953125 41.82305908203125 437.8496398925781 50.88528442382813 448.6287841796875 60.76113891601563 C 459.3875122070313 70.61834716796875 469.4212036132813 81.42312622070313 478.4511413574219 92.87542724609375 C 487.5274353027344 104.3863525390625 495.7172241210938 116.7135009765625 502.7931518554688 129.5144958496094 C 509.9528503417969 142.4670715332031 516.0774536132813 156.0960693359375 520.9967041015625 170.0229187011719 C 531.183837890625 198.8631286621094 536.34912109375 229.1353454589844 536.34912109375 259.9985046386719 C 536.34912109375 290.8614196777344 531.183837890625 321.1334838867188 520.9967041015625 349.9736938476563 C 516.0774536132813 363.9005126953125 509.9528503417969 377.5294799804688 502.7931518554688 390.4821166992188 C 495.7172241210938 403.2831420898438 487.5274353027344 415.6103515625 478.4511413574219 427.1212768554688 C 469.4212036132813 438.5736389160156 459.3875122070313 449.3784790039063 448.6287841796875 459.2357177734375 C 437.8496398925781 469.1116333007813 426.192626953125 478.1738586425781 413.9814453125 486.1707153320313 C 401.6626586914063 494.2379150390625 388.6026611328125 501.3367004394531 375.1641235351563 507.2698364257813 C 361.5214233398438 513.2930908203125 347.27978515625 518.2067260742188 332.8348388671875 521.8741455078125 L 327.8504943847656 523.1396484375 L 327.8504943847656 517.9971313476563 L 327.8504943847656 336.2490844726563 L 204.4976501464844 336.2490844726563 L 204.4976501464844 517.9971313476563 L 204.4976501464844 523.1396484375 L 199.5132751464844 521.8741455078125 C 185.0682983398438 518.2067260742188 170.8267211914063 513.2930908203125 157.1839904785156 507.2698364257813 C 143.7455139160156 501.3367004394531 130.6854248046875 494.2379150390625 118.3667297363281 486.1707153320313 C 106.1554870605469 478.1738586425781 94.49844360351563 469.1116333007813 83.7193603515625 459.2357177734375 C 72.96063232421875 449.3784790039063 62.92694091796875 438.5736389160156 53.89694213867188 427.1212768554688 C 44.82070922851563 415.6103515625 36.63092041015625 403.2831420898438 29.55499267578125 390.4821166992188 C 22.39529418945313 377.5294799804688 16.27069091796875 363.9005126953125 11.3514404296875 349.9736938476563 C 1.164306640625 321.1334838867188 -4.0009765625 290.8614196777344 -4.0009765625 259.9985046386719 C -4.0009765625 229.1353454589844 1.164306640625 198.8631286621094 11.3514404296875 170.022705078125 C 16.27069091796875 156.0959167480469 22.39529418945313 142.4668579101563 29.55499267578125 129.5142211914063 C 36.63092041015625 116.713134765625 44.82070922851563 104.3859252929688 53.89694213867188 92.875 C 62.92694091796875 81.42269897460938 72.96063232421875 70.61785888671875 83.7193603515625 60.76065063476563 C 94.49844360351563 50.884765625 106.1554870605469 41.82257080078125 118.3667297363281 33.82583618164063 C 130.6854248046875 25.75863647460938 143.7455139160156 18.659912109375 157.1839904785156 12.7269287109375 C 170.8267211914063 6.70379638671875 185.068359375 1.790283203125 199.5133666992188 -1.87701416015625 L 204.4976501464844 -3.1424560546875 L 204.4976501464844 2 L 204.4976501464844 182.307861328125 L 327.8504943847656 182.307861328125 L 327.8504943847656 2 L 327.8504943847656 -3.14251708984375 Z"/>
            </g>
        </g>
    </symbol>

    <symbol id='mark' width="42.482" height="42.482" viewBox="0 0 42.482 42.482">
        <path class="a" fill="none" stroke-width='3px' stroke='#ffbc21' d="M35.422,0V40.042H18.385" transform="translate(16.374 -13) rotate(45)"/>
    </symbol>

    <symbol id='facebook' width="13.937" height="28" viewBox="0 0 13.937 28">
        <defs>
            <style>.a{fill:#fff;fill-rule:evenodd;}
            </style>
        </defs>
        <path class="a" fill='#fff' fill-rule='evenodd' d="M578.162,289.77v12.5a.378.378,0,0,0,.378.378h5.386a.378.378,0,0,0,.378-.378v-12.74h3.905a.378.378,0,0,0,.376-.346l.375-4.441a.378.378,0,0,0-.377-.41H584.3v-3.151a1.337,1.337,0,0,1,1.337-1.337h3.009a.378.378,0,0,0,.378-.377V275.03a.378.378,0,0,0-.378-.378h-5.085a5.4,5.4,0,0,0-5.4,5.4v4.282h-2.693a.378.378,0,0,0-.378.378v4.441a.378.378,0,0,0,.378.378h2.693Z" transform="translate(-575.091 -274.652)"/>
    </symbol>

    <symbol id='radian' width="170" height="25" viewBox="0 0 175.118 26.571">
        <defs>
            <style>.a{fill:#5987bb;}
            </style>
        </defs>
        <path class="a" fill='#5987bb' d="M615.783,331v21.079L591.5,331.212v25.381h2.01v-21l24.283,20.866V331Z" transform="translate(-442.675 -330.023)"/>
        <path class="a" fill='#5987bb' d="M539.483,355.978h2.355a13.751,13.751,0,0,1,23.144,0h2.363l-13.908-26.437Zm13.927-8.333a15.694,15.694,0,0,0-8.609,2.563l8.634-16.356,8.614,16.375A15.694,15.694,0,0,0,553.41,347.645Z" transform="translate(-425.509 -329.541)"/>
        <rect class="a" fill='#5987bb' width="2.01" height="25.459" transform="translate(103.266 0.978)"/>
        <path class="a" fill='#5987bb' d="M483.73,331H471v25.459h12.73a12.73,12.73,0,1,0,0-25.459Zm0,23.449H473.01V333.01h10.72a10.72,10.72,0,0,1,0,21.44Z" transform="translate(-402.908 -330.023)"/>
        <path class="a" fill='#5987bb' d="M418.524,355.978h2.356a13.75,13.75,0,0,1,23.143,0h2.363l-13.908-26.437Zm13.928-8.333a15.691,15.691,0,0,0-8.609,2.563l8.633-16.356,8.615,16.375A15.7,15.7,0,0,0,432.452,347.645Z" transform="translate(-386.59 -329.541)"/>
        <path class="a" fill='#5987bb' d="M395.251,341.05A10.061,10.061,0,0,0,385.2,331H369.368v25.459h2.01V351.1h8.82a13.042,13.042,0,0,1,10.505,5.359h2.423a15.185,15.185,0,0,0-5.846-5.578A10.065,10.065,0,0,0,395.251,341.05Zm-10.05,8.04H371.378v-16.08H385.2a8.04,8.04,0,0,1,0,16.08Z" transform="translate(-369.368 -330.023)"/>
    </symbol>

    <symbol id='arrow' width="17.311" height="17.311" viewBox="0 0 17.311 17.311">
        <defs>
            <style>.a{fill:none;stroke:#fff;stroke-width:1.5px;}
            </style>
        </defs>
        <path class="a" fill='none' stroke='#fff' stroke-width='1.5px' d="M0,0H11.49V11.49" transform="translate(8.125 0.53) rotate(45)"/>
    </symbol>
</svg>
